<svg id="Layer_1" data-name="Layer 1" xmlns="http://www.w3.org/2000/svg"
     viewBox="0 0 497.28 83.74">
  <defs>
    <filter id="luminosity-invert-noclip" x="416.26" y="0.13" width="83.74" height="83.74" filterUnits="userSpaceOnUse"
            color-interpolation-filters="sRGB">
      <feColorMatrix values="-1 0 0 0 1 0 -1 0 0 1 0 0 -1 0 1 0 0 0 1 0" result="invert"/>
      <feFlood flood-color="#fff" result="bg"/>
      <feBlend in="invert" in2="bg"/>
    </filter>
    <mask id="mask" x="413.53" y="0" width="83.74" height="83.74" maskUnits="userSpaceOnUse">
      <g style="filter:url(#luminosity-invert-noclip)">
        <g transform="translate(-2.72 -0.13)">
          <g id="IO">
            <path id="O" d="M429.28,19.29H439V63.56h-9.74Z" style="fill:#fff"/>
            <path id="I"
                  d="M448.13,41.55v-.13c0-12.58,9.93-22.89,23.59-22.89s23.46,10.18,23.46,22.77v.12c0,12.59-9.93,22.89-23.59,22.89S448.13,54.13,448.13,41.55Zm36.87,0v-.13c0-7.59-5.57-13.91-13.41-13.91s-13.28,6.2-13.28,13.79v.12c0,7.59,5.57,13.92,13.41,13.92S485,49.14,485,41.55Z"
                  style="fill:#fff"/>
          </g>
        </g>
      </g>
    </mask>
  </defs>
  <title>wordmark</title>
  <path
    d="M35.84,54.68a1.21,1.21,0,0,1,.88.39L39,57.58a18.51,18.51,0,0,1-6.46,4.82,22.06,22.06,0,0,1-9.16,1.72,21.59,21.59,0,0,1-8.51-1.62A18.55,18.55,0,0,1,8.39,58a20.37,20.37,0,0,1-4.18-7,26.13,26.13,0,0,1-1.49-9,24.61,24.61,0,0,1,1.59-9,20.57,20.57,0,0,1,4.47-7,19.94,19.94,0,0,1,6.89-4.56,23.39,23.39,0,0,1,8.85-1.62,20.86,20.86,0,0,1,8.25,1.49,20.69,20.69,0,0,1,6.16,4L37,28a2.29,2.29,0,0,1-.48.5,1.34,1.34,0,0,1-.79.19,1.52,1.52,0,0,1-.83-.28c-.29-.2-.64-.43-1-.72s-.88-.58-1.43-.9a11.62,11.62,0,0,0-1.93-.91,15.27,15.27,0,0,0-2.61-.71,17.46,17.46,0,0,0-3.42-.29,16.65,16.65,0,0,0-6.37,1.19,14.31,14.31,0,0,0-5,3.41,15.56,15.56,0,0,0-3.26,5.39A20.71,20.71,0,0,0,8.72,42,21.11,21.11,0,0,0,9.88,49.2a16,16,0,0,0,3.18,5.37,13.33,13.33,0,0,0,4.77,3.35,15.4,15.4,0,0,0,5.93,1.15,24.31,24.31,0,0,0,3.49-.23,14.42,14.42,0,0,0,2.86-.71,12,12,0,0,0,2.45-1.23,17.59,17.59,0,0,0,2.28-1.77A1.57,1.57,0,0,1,35.84,54.68Z"
    transform="translate(-2.72 -0.13)" style="fill:#0095da"/>
  <path
    d="M63.45,46.38V63.64H57.61V46.38L41.72,20.26h5.14a1.82,1.82,0,0,1,1.24.39,3.61,3.61,0,0,1,.79,1l9.93,16.86c.4.71.74,1.37,1,2s.51,1.24.74,1.85c.22-.63.46-1.25.72-1.88a18.32,18.32,0,0,1,1-2l9.9-16.86a3.89,3.89,0,0,1,.74-.92,1.72,1.72,0,0,1,1.23-.44h5.21Z"
    transform="translate(-2.72 -0.13)" style="fill:#0095da"/>
  <path
    d="M84.83,63.64V20.26H98.66a26.68,26.68,0,0,1,6.89.78,13.53,13.53,0,0,1,4.75,2.24,8.94,8.94,0,0,1,2.76,3.56,12.1,12.1,0,0,1,.89,4.74,9.71,9.71,0,0,1-.5,3.09,9,9,0,0,1-1.51,2.75,10.62,10.62,0,0,1-2.55,2.27,14.25,14.25,0,0,1-3.58,1.64A13.3,13.3,0,0,1,113,44.75a8.93,8.93,0,0,1,2.42,6.54,12.27,12.27,0,0,1-1,5,10.8,10.8,0,0,1-3,3.91,13.86,13.86,0,0,1-4.78,2.53,21.67,21.67,0,0,1-6.47.89Zm5.87-24h7.75a15.2,15.2,0,0,0,4.3-.54,8.78,8.78,0,0,0,3-1.52,5.79,5.79,0,0,0,1.77-2.34,7.8,7.8,0,0,0,.58-3c0-2.55-.77-4.41-2.3-5.61s-3.92-1.78-7.15-1.78h-8Zm0,4.18V59h9.38a14.07,14.07,0,0,0,4.32-.58,7.86,7.86,0,0,0,3-1.62,6.28,6.28,0,0,0,1.72-2.48,8.92,8.92,0,0,0,.54-3.16,6.51,6.51,0,0,0-2.38-5.32q-2.37-1.95-7.19-2Z"
    transform="translate(-2.72 -0.13)" style="fill:#0095da"/>
  <path d="M150.73,20.26V25H129.9V39.45h16.87v4.6H129.9V58.86h20.83v4.78H124V20.26Z" transform="translate(-2.72 -0.13)"
        style="fill:#0095da"/>
  <path
    d="M165.62,45.54v18.1h-5.84V20.26H172a26.62,26.62,0,0,1,7.12.83,13.47,13.47,0,0,1,5,2.41A9.65,9.65,0,0,1,187,27.3a12.78,12.78,0,0,1,.94,5,12.55,12.55,0,0,1-.73,4.29,11.35,11.35,0,0,1-2.1,3.59,12.7,12.7,0,0,1-3.36,2.71,17,17,0,0,1-4.5,1.7,6.24,6.24,0,0,1,1.94,1.84l12.65,17.23h-5.21a2.57,2.57,0,0,1-2.36-1.24L173,46.9a3.33,3.33,0,0,0-1.12-1,4.06,4.06,0,0,0-1.81-.31Zm0-4.27h6.15a15.13,15.13,0,0,0,4.53-.62,9.3,9.3,0,0,0,3.27-1.76,7.45,7.45,0,0,0,2-2.71,8.92,8.92,0,0,0,.66-3.48,6.92,6.92,0,0,0-2.55-5.84c-1.71-1.32-4.25-2-7.62-2h-6.42Z"
    transform="translate(-2.72 -0.13)" style="fill:#0095da"/>
  <path d="M228.57,19.53v8.11H216.15v36H205.92v-36H193.51V19.53Z" transform="translate(-2.72 -0.13)"
        style="fill:#1a1b1b"/>
  <path
    d="M274.52,41.57a23.68,23.68,0,0,1-1.65,8.9,21.5,21.5,0,0,1-4.65,7.16A21.16,21.16,0,0,1,261,62.4a26.41,26.41,0,0,1-18.75,0,21.05,21.05,0,0,1-11.91-11.93,23.68,23.68,0,0,1-1.65-8.9,23.68,23.68,0,0,1,1.65-8.9A21.13,21.13,0,0,1,235,25.52a21.64,21.64,0,0,1,7.25-4.75,24.63,24.63,0,0,1,9.38-1.72A24.36,24.36,0,0,1,261,20.79a21.58,21.58,0,0,1,7.22,4.76,21.25,21.25,0,0,1,4.65,7.15A23.6,23.6,0,0,1,274.52,41.57Zm-10.47,0a19.25,19.25,0,0,0-.85-5.89,12.56,12.56,0,0,0-2.44-4.43,10.61,10.61,0,0,0-3.89-2.79,13.31,13.31,0,0,0-5.24-1,13.54,13.54,0,0,0-5.28,1,10.57,10.57,0,0,0-3.9,2.79A12.41,12.41,0,0,0,240,35.68a19,19,0,0,0-.85,5.89,19.06,19.06,0,0,0,.85,5.92,12.41,12.41,0,0,0,2.44,4.43,10.3,10.3,0,0,0,3.9,2.77,13.73,13.73,0,0,0,5.28,1,13.49,13.49,0,0,0,5.24-1,10.34,10.34,0,0,0,3.89-2.77,12.56,12.56,0,0,0,2.44-4.43A19.36,19.36,0,0,0,264.05,41.57Z"
    transform="translate(-2.72 -0.13)" style="fill:#1a1b1b"/>
  <path
    d="M323,41.57a23.68,23.68,0,0,1-1.65,8.9,21.5,21.5,0,0,1-4.65,7.16,21.26,21.26,0,0,1-7.22,4.77,26.41,26.41,0,0,1-18.75,0,21.11,21.11,0,0,1-11.92-11.93,23.68,23.68,0,0,1-1.65-8.9,23.68,23.68,0,0,1,1.65-8.9,21.15,21.15,0,0,1,4.67-7.15,21.54,21.54,0,0,1,7.25-4.75,24.63,24.63,0,0,1,9.38-1.72,24.36,24.36,0,0,1,9.37,1.74,21.68,21.68,0,0,1,7.22,4.76,21.25,21.25,0,0,1,4.65,7.15A23.6,23.6,0,0,1,323,41.57Zm-10.48,0a19.26,19.26,0,0,0-.84-5.89,12.56,12.56,0,0,0-2.44-4.43,10.61,10.61,0,0,0-3.89-2.79,14.75,14.75,0,0,0-10.52,0,10.61,10.61,0,0,0-3.91,2.79,12.39,12.39,0,0,0-2.43,4.43,19,19,0,0,0-.85,5.89,19.06,19.06,0,0,0,.85,5.92,12.39,12.39,0,0,0,2.43,4.43,10.33,10.33,0,0,0,3.91,2.77,14.89,14.89,0,0,0,10.52,0,10.34,10.34,0,0,0,3.89-2.77,12.56,12.56,0,0,0,2.44-4.43A19.37,19.37,0,0,0,312.48,41.57Z"
    transform="translate(-2.72 -0.13)" style="fill:#1a1b1b"/>
  <path d="M358.07,19.53v8.11H345.66v36H335.43v-36H323V19.53Z" transform="translate(-2.72 -0.13)" style="fill:#1a1b1b"/>
  <path d="M400.82,63.64H390.53V45H372.61V63.64h-10.3V19.53h10.3V38h17.92V19.53h10.29Z"
        transform="translate(-2.72 -0.13)" style="fill:#1a1b1b"/>
  <path
    d="M406.63,60.23a3.74,3.74,0,0,1,.29-1.49,3.65,3.65,0,0,1,2-2,3.69,3.69,0,0,1,1.48-.3,3.74,3.74,0,0,1,1.49.3,4.24,4.24,0,0,1,1.21.82,3.81,3.81,0,0,1,.8,1.21,4,4,0,0,1,0,3,3.72,3.72,0,0,1-.8,1.19,3.81,3.81,0,0,1-1.21.8,3.74,3.74,0,0,1-1.49.29,3.69,3.69,0,0,1-1.48-.29,3.56,3.56,0,0,1-1.2-.8,3.84,3.84,0,0,1-.78-1.19A3.72,3.72,0,0,1,406.63,60.23Z"
    transform="translate(-2.72 -0.13)" style="fill:#1a1b1b"/>
  <g style="mask:url(#mask)">
    <circle id="Transparent_IO" data-name="Transparent IO" cx="455.4" cy="41.87" r="41.87" style="fill:#0095da"/>
  </g>
</svg>
